<svg xmlns="http://www.w3.org/2000/svg" width="48.96" height="48.96"><defs><clipPath id="A"><path d="M0 36h37.486V0H0z"/></clipPath></defs><g clip-path="url(#A)" transform="matrix(1.333333 0 0 -1.333333 .2168 48.573732)"><path d="M34.885 18.071A16.69 16.69 0 0 0 18.198 1.383C8.982 1.383 1.51 8.855 1.51 18.071a16.69 16.69 0 0 0 16.688 16.687 16.69 16.69 0 0 0 16.687-16.687" fill="#fff"/><path d="M34.885 18.071A16.69 16.69 0 0 0 18.198 1.383C8.982 1.383 1.51 8.855 1.51 18.071a16.69 16.69 0 0 0 16.688 16.687 16.69 16.69 0 0 0 16.687-16.687z" fill="none" stroke="#06bef7" stroke-width="1.5" stroke-miterlimit="10"/><path d="M18.146 17.09l.322 1.064c.121.411.311.796.428 1.207l.15.514c.039.145.108 1.677-.106 1.853a.66.66 0 0 1-.539.125c-.168-.046-.344-.108-.51-.18-.149-.064-.236-.174-.302-.301l-.61-1.317c-.06-.157-.145-.305-.215-.459-.181-.402-.336-.816-.477-1.233-.184-.54-.294-1.1-.37-1.664a48.37 48.37 0 0 1-.165-2.268l-.026-1.139.05-1.997.163-2.101.271-1.571c.071-.417.167-.828.282-1.235l.163-.671c.075-.32.2-.626.226-.959.01-.134 1.026-1.401 1.341-1.504.119-.039.886.579 1.249.709.504.18.993.398 1.448.681l1.415.817c.564.365 1.104.765 1.56 1.267l1.089 1.309c.372.532.687 1.097 1.006 1.662.158.282.286.58.473.845.019.027.903 2.459.852 2.647-.02.076-.992.081-1.049.094-.212.051-.431.016-.644.047-.037.006-1.092-.135-1.567-.309-.565-.208-1.123-.42-1.638-.742l-1.44-.916-.892-.615c-.397-.31-.803-.621-1.127-.999-.275-.32-.561-.645-.764-1.025-.038-.073-.073-.184-.16-.179-.1.007-.097.133-.111.206l-.115.795-.116 1.176-.034.731-.026.888c-.025.437.107 2.49.129 3.082.006.161.267 1.275.386 1.665" fill="#88b72c"/><path d="M7.679 20.252c.608.376 1.268.649 1.92.935l.518.197c.307.132.622.102.943.086l5.714-.322c.064-.005.14-.033.175.055.029.073 0 .137-.051.185-.195.185-1.015.468-1.096.497-.156.057-3.306.678-3.52.77-.282.122-.557.262-.821.425-.168.104-.341.186-.471.343-.207.247-.369.517-.515.803l-.703 1.438c-.162.267-.161.574-.16.869l.031.791c.019.324.044.658.204.949.1.182.191.373.311.539.194.269.297.579.458.862.155.274.419.431.679.585.116.069 1.077-.38 1.29-.557l1.069-.871c.231-.183.382-.439.592-.642.371-.359.633-.799.905-1.23.073-.117.111-.26.144-.395.067-.282.199-.535.312-.798.178-.42.279-.864.369-1.311l.191-.804c.047-.172.163-.316.287-.431.234-.214.355-.505.555-.739.095-.111.148-.116.22.011s.039.257.022.381c-.02.15-.051.304-.113.44-.153.337-.137.69-.128 1.043a5.4 5.4 0 0 0 .209 1.382c.142.487.252.979.53 1.431.324.523.651 1.036 1.066 1.491.329.361.543.798.768 1.224.084.158.188.306.246.479.048.14 1.054.995 1.416 1.026.356.03.651-.099.86-.398l.703-1.032c.296-.531.588-1.063.717-1.665.097-.45.069-.907.036-1.36-.019-.246-.073-.49-.104-.735-.063-.507-.352-.907-.61-1.322L21.7 23.155a2.03 2.03 0 0 0-.893-.827c-.083-.041-.173-.049-.262-.058-.242-.026-.728-.34-.776-.369-.087-.052-.18-.096-.248-.174-.043-.049-.113-.099-.077-.172s.118-.045.183-.039c.411.034.804.156 1.204.244.372.081.746.161 1.132.152.121-.003.232.05.338.099l1.393.639a4.07 4.07 0 0 0 1.396.344c.512.031 1.022.01 1.53-.013.273-.012.549-.071.739-.314.08-.104.692-1.328.805-1.886.065-.324.161-.642.249-.961a.79.79 0 0 0 .038-.264c-.023-.487-.14-.951-.325-1.399-.049-.116-.125-.203-.271-.174-.579.116-1.071-.126-1.549-.397-.461-.26-.946-.461-1.434-.665-1.658-.216-2.609 1.209-2.741 1.283a.6.6 0 0 1-.222.078c-.138.018-.229-.098-.194-.236.101-.395.326-.725.56-1.048.102-.143.178-.298.262-.45.107-.192.224-.371.406-.504.266-.195.379-.471.408-.793a8.34 8.34 0 0 0 0-1.499c-.034-.392-.113-.787-.253-1.165-.121-.33-.276-.657-.2-1.028.017-.084-.017-.153-.073-.215-.197-.217-.372-.46-.594-.645-.263-.219-.594-.28-.922-.165-.274.096-2.23 1.076-2.296 1.113-.273.156-.501.358-.707.605-.401.478-.581 1.038-.697 1.632l-.204.828c-.051.19-.037.381-.018.571.021.222-.033.439-.006.667.03.247.093.482.156.719.059.218.092.441.119.663l.125 1.837c.021.27-.217.444-.474.358-.221-.072-.38-.216-.508-.399-.145-.206-1.416-1.607-1.532-1.71-.255-.227-.443-.521-.729-.719-.083-.059-.166-.115-.257-.157-.27-.122-2.531-1.195-2.993-1.222-.245-.015-.484.037-.699.154-.317.173-.661.263-1.003.369-.54.17-1.089.337-1.565.644-.381.245-.764.5-1.078.836-.031.032-1.044.554-.811.997.087.164.179.33.233.506.187.618.623 1.014 1.155 1.33l.159.096" fill="#f4552a"/><path d="M20.34 22.037c.002-.097-.028-.89-.029-.91a3.17 3.17 0 0 1-.082-.45c-.001-.02-.035-.089-.032-.113-.028-.083-.231-.785-.301-.862-.102-.114-.424-.753-.585-.879s-.315-.27-.533-.309c-.135-.025-1.633-.01-1.737-.013-.172-.005-.325.041-.478.106-.061.078-.547.585-.578.709-.016.059-.128.926-.135 1.148-.009.325-.091.643-.106.971-.015.346.096.638.248.92.167.309.452.518.703.754.092.086 1.22.461 1.342.459l1.111-.031c.28-.034.559-.078.803-.239.056-.037.389-1.242.389-1.261" fill="#fda9ff"/><g fill="#f9e062"><path d="M15.654 24.531l-.01.137c-.015.25.066 1.059.338 1.076l.141.003c.174-.015.71-.389.717-.397s.25-.38.275-.455c.049-.14.117-.265.06-.439-.043-.134-.128-.25-.157-.386-.043-.208-.276-.35-.489-.319-.11.016-.339.102-.468.22h-.001c-.154.173-.305.238-.406.56m5.498.306l.021-.03c0-.01.003-.017.008-.025.043-.169.018-.333-.034-.496l-.002-.004c-.007-.01-.013-.021-.019-.031-.012-.018-.124-.135-.157-.182-.085-.121-.192-.212-.333-.245s-.291-.11-.421-.023c-.667.964-.444 1.343-.361 1.547.08.197.134.273.349.228.078-.016.153-.047.23-.065.044-.011.719-.674.719-.674m-3.494.376c.034.298.055.675.299.671.215-.004.377-.101.543-.196.178-.102.343-.262.379-.453.062-.335.013-.665-.287-.902-.106-.083-.218-.102-.344-.084-.231.031-.445.428-.529.603-.03.062-.021.027-.061.361m1.175-7.94l-.014.089c.034.127.223.222.356.206.147.028.417-.024 1.129-.125 0 0 .173-.09.197-.084l.39-.251c.247-.138.426-.317.453-.616.008-.091-.003-.164-.093-.216a2.35 2.35 0 0 1-.244-.168c-.203-.154-.444-.192-.687-.222-.108-.012-.209.016-.299.066-.224.124-.486.179-.677.362-.111.107-.453.806-.511.959m2.214.487c-.017.004-.188.056-.243.115-.236.257-.426.536-.473.894-.013.089.022.087.086.095l.414.075c.184.041.362.079.555.037a1.46 1.46 0 0 0 .532-.207c.225-.153.493-.251.63-.519.07-.139.071-.215-.066-.291l-.329-.187c-.299-.169-.615-.273-.948-.068-.046.03-.105.037-.158.056m2.532 3.075c.003-.008.007-.014.014-.019a.98.98 0 0 0 .176-.426c-.009-.164-.112-.248-.256-.294-.022-.007-.775-.22-1.146-.235-.044-.002-.222.054-.411.17-.16.176-.511.263-.71.963l-.009.052c.141.181.575.231.907.253.15.01.275.006.409-.048l.669-.246c.123-.051.254-.077.357-.17m-10.525.186c-.022.026-.314.453-.314.453l-.131.339c-.028.073-.011.144.057.167.09.032.174.09.278.084.347-.017.701.08 1.044-.054.006-.003.457-.153.471-.153.024-.026.592-.175.724-.299.185-.174-.073-.942-.175-1.038-.287-.273-.597-.317-.959-.098l-.97.571c-.007.009-.016.019-.025.028m2.366 3.13c.161-.209.229-.44.213-.709-.008-.143-.1-.228-.142-.342s-.123-.174-.227-.227c-.089-.046-.177-.051-.26-.029-.377.101-.713.276-.952.596-.086.114-.114.255-.124.398-.003.044-.056.775.188.793.206.015.414.004.621.004l.683-.484m7.884-1.763c-.145-.056-.301-.062-.45-.1-.194-.05-.394.003-.588.031-.174.025-.394.149-.616.367-.015.018-.225.352-.269.522-.015.056.02.093.071.122.106.06.796.264 1.048.246.314-.021.624-.053.931-.131.266-.067.353-.288.462-.493.031-.059.01-.07-.068-.139-.094-.107-.186-.154-.275-.235-.076-.07-.164-.127-.246-.19m-5.691-7.271c-.078-.115-.595-.337-.692-.318-.19.036-.326.242-.35.378-.022.124.003.252.013.378.04.5.245.926.542 1.317.013.018.295.353.369.443.041.05.096.059.153.041.177-.053.348-.327.442-.548.009-.024.014.038.033-.074.051-.308.055-.631-.075-.934-.03-.067-.066-.123-.112-.178-.068-.081-.294-.462-.323-.505m-2.208 2.705c.105.16.279.229.436.287.21.08.418-.106.406-.335-.02-.346-.008-.696-.113-1.033-.041-.129-.115-.236-.203-.335-.079-.088-.273-.263-.853-.198a.4.4 0 0 0-.193.416l.003.054c.048.264.115.521.228.765.006.006.237.299.289.379m-1.193.759c-.122.052-.214.127-.295.228l-.262.294c-.097.115.365.416.506.507.375.243.771.287 1.182.103.057-.026.099-.084.148-.126l.021-.05c.024-.127.065-.248.029-.384-.056-.192-.173-.4-.233-.515-.019-.037-.152-.182-.159-.186-.258-.106-.371-.091-.505-.087-.094.002-.32.169-.432.216"/></g></g></svg>