<?xml version="1.0" encoding="UTF-8" standalone="no"?>
<!-- Created with Inkscape (http://www.inkscape.org/) -->

<svg
   xmlns:dc="http://purl.org/dc/elements/1.1/"
   xmlns:cc="http://creativecommons.org/ns#"
   xmlns:rdf="http://www.w3.org/1999/02/22-rdf-syntax-ns#"
   xmlns:svg="http://www.w3.org/2000/svg"
   xmlns="http://www.w3.org/2000/svg"
   xmlns:sodipodi="http://sodipodi.sourceforge.net/DTD/sodipodi-0.dtd"
   xmlns:inkscape="http://www.inkscape.org/namespaces/inkscape"
   version="1.1"
   id="svg2"
   xml:space="preserve"
   width="48.959999"
   height="48.959999"
   viewBox="0 0 48.959998 48.959999"
   sodipodi:docname="seedling-flower_icons.svg"
   inkscape:export-filename="/Users/btalberg/Documents/Personal/Wildflower/Assets/flower_marker.png"
   inkscape:export-xdpi="74.509804"
   inkscape:export-ydpi="74.509804"
   inkscape:version="0.92.2 5c3e80d, 2017-08-06"><metadata
     id="metadata8"><rdf:RDF><cc:Work
         rdf:about=""><dc:format>image/svg+xml</dc:format><dc:type
           rdf:resource="http://purl.org/dc/dcmitype/StillImage" /><dc:title></dc:title></cc:Work></rdf:RDF></metadata><defs
     id="defs6"><clipPath
       clipPathUnits="userSpaceOnUse"
       id="clipPath18"><path
         d="M 0,36 H 37.486 V 0 H 0 Z"
         id="path16"
         inkscape:connector-curvature="0" /></clipPath></defs><sodipodi:namedview
     pagecolor="#ffffff"
     bordercolor="#666666"
     borderopacity="1"
     objecttolerance="10"
     gridtolerance="10"
     guidetolerance="10"
     inkscape:pageopacity="0"
     inkscape:pageshadow="2"
     inkscape:window-width="1136"
     inkscape:window-height="898"
     id="namedview4"
     showgrid="false"
     units="px"
     width="48.5in"
     inkscape:zoom="9.8333333"
     inkscape:cx="22.604664"
     inkscape:cy="24.026165"
     inkscape:window-x="1049"
     inkscape:window-y="4"
     inkscape:window-maximized="0"
     inkscape:current-layer="g10" /><g
     id="g10"
     inkscape:groupmode="layer"
     inkscape:label="seedling-flower_icons"
     transform="matrix(1.3333333,0,0,-1.3333333,0,48.960002)"><g
       id="g12"
       transform="translate(0.16260012,0.2897023)"><g
         id="g14"
         clip-path="url(#clipPath18)"><g
           id="g20"
           transform="translate(34.8849,18.0708)"><path
             d="m 0,0 c 0,-9.216 -7.471,-16.688 -16.687,-16.688 -9.216,0 -16.688,7.472 -16.688,16.688 0,9.216 7.472,16.687 16.688,16.687 C -7.471,16.687 0,9.216 0,0"
             style="fill:#ffffff;fill-opacity:1;fill-rule:nonzero;stroke:none"
             id="path22"
             inkscape:connector-curvature="0" /></g><g
           id="g24"
           transform="translate(34.8849,18.0708)"><path
             d="m 0,0 c 0,-9.216 -7.471,-16.688 -16.687,-16.688 -9.216,0 -16.688,7.472 -16.688,16.688 0,9.216 7.472,16.687 16.688,16.687 C -7.471,16.687 0,9.216 0,0 Z"
             style="fill:none;stroke:#06bef7;stroke-width:1.5;stroke-linecap:butt;stroke-linejoin:miter;stroke-miterlimit:10;stroke-dasharray:none;stroke-opacity:1"
             id="path26"
             inkscape:connector-curvature="0" /></g><g
           id="g28"
           transform="translate(18.1457,17.0898)"><path
             d="M 0,0 C 0.108,0.354 0.217,0.709 0.322,1.064 0.443,1.475 0.633,1.86 0.75,2.271 0.799,2.443 0.854,2.613 0.9,2.785 0.939,2.93 1.008,4.462 0.794,4.638 0.657,4.751 0.426,4.809 0.255,4.763 0.087,4.717 -0.089,4.655 -0.255,4.583 -0.404,4.519 -0.491,4.409 -0.557,4.282 -0.776,3.851 -0.995,3.419 -1.167,2.965 -1.227,2.808 -1.312,2.66 -1.382,2.506 -1.563,2.104 -1.718,1.69 -1.859,1.273 c -0.184,-0.54 -0.294,-1.1 -0.37,-1.664 -0.031,-0.219 -0.156,-1.862 -0.165,-2.268 -0.007,-0.38 -0.035,-0.759 -0.026,-1.139 0.017,-0.665 0.003,-1.332 0.05,-1.997 0.049,-0.701 0.062,-1.405 0.163,-2.101 0.075,-0.526 0.183,-1.047 0.271,-1.571 0.071,-0.417 0.167,-0.828 0.282,-1.235 0.062,-0.222 0.111,-0.447 0.163,-0.671 0.075,-0.32 0.2,-0.626 0.226,-0.959 0.01,-0.134 1.026,-1.401 1.341,-1.504 0.119,-0.039 0.886,0.579 1.249,0.709 0.504,0.18 0.993,0.398 1.448,0.681 0.464,0.288 0.959,0.521 1.415,0.817 0.564,0.365 1.104,0.765 1.56,1.267 0.382,0.42 0.762,0.842 1.089,1.309 0.372,0.532 0.687,1.097 1.006,1.662 0.158,0.282 0.286,0.58 0.473,0.845 0.019,0.027 0.903,2.459 0.852,2.647 -0.02,0.076 -0.992,0.081 -1.049,0.094 C 7.907,-3.754 7.688,-3.789 7.475,-3.758 7.438,-3.752 6.383,-3.893 5.908,-4.067 5.343,-4.275 4.785,-4.487 4.27,-4.809 3.786,-5.108 3.301,-5.404 2.83,-5.725 2.531,-5.927 2.224,-6.117 1.938,-6.34 1.541,-6.65 1.135,-6.961 0.811,-7.339 0.536,-7.659 0.25,-7.984 0.047,-8.364 c -0.038,-0.073 -0.073,-0.184 -0.16,-0.179 -0.1,0.007 -0.097,0.133 -0.111,0.206 -0.048,0.263 -0.085,0.529 -0.115,0.795 -0.044,0.392 -0.091,0.783 -0.116,1.176 -0.016,0.243 -0.03,0.487 -0.034,0.731 -0.005,0.296 -0.008,0.592 -0.026,0.888 -0.025,0.437 0.107,2.49 0.129,3.082 C -0.38,-1.504 -0.119,-0.39 0,0"
             style="fill:#88b72c;fill-opacity:1;fill-rule:nonzero;stroke:none"
             id="path30"
             inkscape:connector-curvature="0" /></g><g
           id="g32"
           transform="translate(7.6789,20.2515)"><path
             d="M 0,0 C 0.608,0.376 1.268,0.649 1.92,0.935 2.089,1.009 2.269,1.059 2.438,1.132 2.745,1.264 3.06,1.234 3.381,1.218 3.823,1.195 8.263,0.969 9.095,0.896 9.159,0.891 9.235,0.863 9.27,0.951 9.299,1.024 9.27,1.088 9.219,1.136 9.024,1.321 8.204,1.604 8.123,1.633 7.967,1.69 4.817,2.311 4.603,2.403 4.321,2.525 4.046,2.665 3.782,2.828 3.614,2.932 3.441,3.014 3.311,3.171 3.104,3.418 2.942,3.688 2.796,3.974 2.552,4.449 2.37,4.954 2.093,5.412 1.931,5.679 1.932,5.986 1.933,6.281 1.934,6.543 1.947,6.809 1.964,7.072 1.983,7.396 2.008,7.73 2.168,8.021 2.268,8.203 2.359,8.394 2.479,8.56 2.673,8.829 2.776,9.139 2.937,9.422 3.092,9.696 3.356,9.853 3.616,10.007 3.732,10.076 4.693,9.627 4.906,9.45 5.258,9.157 5.614,8.864 5.975,8.579 6.206,8.396 6.357,8.14 6.567,7.937 6.938,7.578 7.2,7.138 7.472,6.707 7.545,6.59 7.583,6.447 7.616,6.312 7.683,6.03 7.815,5.777 7.928,5.514 8.106,5.094 8.207,4.65 8.297,4.203 8.352,3.933 8.417,3.666 8.488,3.399 8.535,3.227 8.651,3.083 8.775,2.968 9.009,2.754 9.13,2.463 9.33,2.229 9.425,2.118 9.478,2.113 9.55,2.24 9.619,2.365 9.589,2.497 9.572,2.621 9.552,2.771 9.521,2.925 9.459,3.061 9.306,3.398 9.322,3.751 9.331,4.104 9.342,4.573 9.41,5.04 9.54,5.486 c 0.142,0.487 0.252,0.979 0.53,1.431 0.324,0.523 0.651,1.036 1.066,1.491 0.329,0.361 0.543,0.798 0.768,1.224 0.084,0.158 0.188,0.306 0.246,0.479 0.048,0.14 1.054,0.995 1.416,1.026 0.356,0.03 0.651,-0.099 0.86,-0.398 0.239,-0.341 0.5,-0.667 0.703,-1.032 0.296,-0.531 0.588,-1.063 0.717,-1.665 0.097,-0.45 0.069,-0.907 0.036,-1.36 C 15.863,6.436 15.809,6.192 15.778,5.947 15.715,5.44 15.426,5.04 15.168,4.625 14.805,4.04 14.356,3.513 14.021,2.903 13.827,2.55 13.509,2.263 13.128,2.076 13.045,2.035 12.955,2.027 12.866,2.018 12.624,1.992 12.138,1.678 12.09,1.649 12.003,1.597 11.91,1.553 11.842,1.475 11.799,1.426 11.729,1.376 11.765,1.303 c 0.037,-0.075 0.118,-0.045 0.183,-0.039 0.411,0.034 0.804,0.156 1.204,0.244 0.372,0.081 0.746,0.161 1.132,0.152 0.121,-0.003 0.232,0.05 0.338,0.099 0.465,0.211 0.926,0.434 1.393,0.639 0.435,0.191 0.905,0.315 1.396,0.344 0.512,0.031 1.022,0.01 1.53,-0.013 0.273,-0.012 0.549,-0.071 0.739,-0.314 0.08,-0.104 0.692,-1.328 0.805,-1.886 0.065,-0.324 0.161,-0.642 0.249,-0.961 0.025,-0.088 0.043,-0.172 0.038,-0.264 -0.023,-0.487 -0.14,-0.951 -0.325,-1.399 -0.049,-0.116 -0.125,-0.203 -0.271,-0.174 -0.579,0.116 -1.071,-0.126 -1.549,-0.397 -0.461,-0.26 -0.946,-0.461 -1.434,-0.665 -1.658,-0.216 -2.609,1.209 -2.741,1.283 -0.071,0.04 -0.143,0.068 -0.222,0.078 -0.138,0.018 -0.229,-0.098 -0.194,-0.236 0.101,-0.395 0.326,-0.725 0.56,-1.048 0.102,-0.143 0.178,-0.298 0.262,-0.45 0.107,-0.192 0.224,-0.371 0.406,-0.504 0.266,-0.195 0.379,-0.471 0.408,-0.793 0.046,-0.5 0.044,-1.002 0,-1.499 -0.034,-0.392 -0.113,-0.787 -0.253,-1.165 -0.121,-0.33 -0.276,-0.657 -0.2,-1.028 0.017,-0.084 -0.017,-0.153 -0.073,-0.215 -0.197,-0.217 -0.372,-0.46 -0.594,-0.645 -0.263,-0.219 -0.594,-0.28 -0.922,-0.165 -0.274,0.096 -2.23,1.076 -2.296,1.113 -0.273,0.156 -0.501,0.358 -0.707,0.605 -0.401,0.478 -0.581,1.038 -0.697,1.632 -0.055,0.279 -0.131,0.554 -0.204,0.828 -0.051,0.19 -0.037,0.381 -0.018,0.571 0.021,0.222 -0.033,0.439 -0.006,0.667 0.03,0.247 0.093,0.482 0.156,0.719 0.059,0.218 0.092,0.441 0.119,0.663 0.034,0.295 0.115,1.722 0.125,1.837 0.021,0.27 -0.217,0.444 -0.474,0.358 C 9.407,-0.797 9.248,-0.941 9.12,-1.124 8.975,-1.33 7.704,-2.731 7.588,-2.834 7.333,-3.061 7.145,-3.355 6.859,-3.553 6.776,-3.612 6.693,-3.668 6.602,-3.71 6.332,-3.832 4.071,-4.905 3.609,-4.932 3.364,-4.947 3.125,-4.895 2.91,-4.778 c -0.317,0.173 -0.661,0.263 -1.003,0.369 -0.54,0.17 -1.089,0.337 -1.565,0.644 -0.381,0.245 -0.764,0.5 -1.078,0.836 -0.031,0.032 -1.044,0.554 -0.811,0.997 0.087,0.164 0.179,0.33 0.233,0.506 0.187,0.618 0.623,1.014 1.155,1.33 C -0.106,-0.064 -0.054,-0.032 0,0"
             style="fill:#f4552a;fill-opacity:1;fill-rule:nonzero;stroke:none"
             id="path34"
             inkscape:connector-curvature="0" /></g><g
           id="g36"
           transform="translate(20.34,22.0366)"><path
             d="m 0,0 c 0.002,-0.097 -0.028,-0.89 -0.029,-0.91 -0.029,-0.071 -0.079,-0.399 -0.082,-0.45 -0.001,-0.02 -0.035,-0.089 -0.032,-0.113 -0.028,-0.083 -0.231,-0.785 -0.301,-0.862 -0.102,-0.114 -0.424,-0.753 -0.585,-0.879 -0.161,-0.126 -0.315,-0.27 -0.533,-0.309 -0.135,-0.025 -1.633,-0.01 -1.737,-0.013 -0.172,-0.005 -0.325,0.041 -0.478,0.106 -0.061,0.078 -0.547,0.585 -0.578,0.709 -0.016,0.059 -0.128,0.926 -0.135,1.148 -0.009,0.325 -0.091,0.643 -0.106,0.971 -0.015,0.346 0.096,0.638 0.248,0.92 0.167,0.309 0.452,0.518 0.703,0.754 0.092,0.086 1.22,0.461 1.342,0.459 C -2.185,1.529 -1.275,1.51 -1.192,1.5 -0.912,1.466 -0.633,1.422 -0.389,1.261 -0.333,1.224 0,0.019 0,0"
             style="fill:#fda9ff;fill-opacity:1;fill-rule:nonzero;stroke:none"
             id="path38"
             inkscape:connector-curvature="0" /></g><g
           id="g40"
           transform="translate(15.6535,24.5308)"><path
             d="M 0,0 C -0.003,0.045 -0.007,0.091 -0.01,0.137 -0.025,0.387 0.056,1.196 0.328,1.213 0.377,1.216 0.432,1.219 0.469,1.216 0.643,1.201 1.179,0.827 1.186,0.819 1.197,0.809 1.436,0.439 1.461,0.364 1.51,0.224 1.578,0.099 1.521,-0.075 1.478,-0.209 1.393,-0.325 1.364,-0.461 1.321,-0.669 1.088,-0.811 0.875,-0.78 0.765,-0.764 0.536,-0.678 0.407,-0.56 H 0.406 C 0.252,-0.387 0.101,-0.322 0,0"
             style="fill:#f9e062;fill-opacity:1;fill-rule:nonzero;stroke:none"
             id="path42"
             inkscape:connector-curvature="0" /></g><g
           id="g44"
           transform="translate(21.1515,24.8369)"><path
             d="m 0,0 c 0.007,-0.01 0.014,-0.02 0.021,-0.03 0,-0.01 0.003,-0.017 0.008,-0.025 0.043,-0.169 0.018,-0.333 -0.034,-0.496 l -0.002,-0.004 c -0.007,-0.01 -0.013,-0.021 -0.019,-0.031 -0.012,-0.018 -0.124,-0.135 -0.157,-0.182 -0.085,-0.121 -0.192,-0.212 -0.333,-0.245 -0.138,-0.032 -0.291,-0.11 -0.421,-0.023 -0.667,0.964 -0.444,1.343 -0.361,1.547 0.08,0.197 0.134,0.273 0.349,0.228 0.078,-0.016 0.153,-0.047 0.23,-0.065 C -0.675,0.663 0,0 0,0"
             style="fill:#f9e062;fill-opacity:1;fill-rule:nonzero;stroke:none"
             id="path46"
             inkscape:connector-curvature="0" /></g><g
           id="g48"
           transform="translate(17.6584,25.2134)"><path
             d="M 0,0 C 0.034,0.298 0.055,0.675 0.299,0.671 0.514,0.667 0.676,0.57 0.842,0.475 1.02,0.373 1.185,0.213 1.221,0.022 1.283,-0.313 1.234,-0.643 0.934,-0.88 0.828,-0.963 0.716,-0.982 0.59,-0.964 0.359,-0.933 0.145,-0.536 0.061,-0.361 0.031,-0.299 0.04,-0.334 0,0"
             style="fill:#f9e062;fill-opacity:1;fill-rule:nonzero;stroke:none"
             id="path50"
             inkscape:connector-curvature="0" /></g><g
           id="g52"
           transform="translate(18.8332,17.2725)"><path
             d="M 0,0 C -0.005,0.029 -0.01,0.059 -0.014,0.089 0.02,0.216 0.209,0.311 0.342,0.295 0.489,0.323 0.759,0.271 1.471,0.17 c 0,0 0.173,-0.09 0.197,-0.084 C 1.798,0.002 1.923,-0.09 2.058,-0.165 2.305,-0.303 2.484,-0.482 2.511,-0.781 2.519,-0.872 2.508,-0.945 2.418,-0.997 2.333,-1.046 2.253,-1.105 2.174,-1.165 1.971,-1.319 1.73,-1.357 1.487,-1.387 1.379,-1.399 1.278,-1.371 1.188,-1.321 0.964,-1.197 0.702,-1.142 0.511,-0.959 0.4,-0.852 0.058,-0.153 0,0"
             style="fill:#f9e062;fill-opacity:1;fill-rule:nonzero;stroke:none"
             id="path54"
             inkscape:connector-curvature="0" /></g><g
           id="g56"
           transform="translate(21.047,17.7598)"><path
             d="m 0,0 c -0.017,0.004 -0.188,0.056 -0.243,0.115 -0.236,0.257 -0.426,0.536 -0.473,0.894 -0.013,0.089 0.022,0.087 0.086,0.095 0.139,0.019 0.277,0.043 0.414,0.075 C -0.032,1.22 0.146,1.258 0.339,1.216 0.529,1.175 0.713,1.118 0.871,1.009 1.096,0.856 1.364,0.758 1.501,0.49 1.571,0.351 1.572,0.275 1.435,0.199 1.324,0.138 1.216,0.073 1.106,0.012 0.807,-0.157 0.491,-0.261 0.158,-0.056 0.112,-0.026 0.053,-0.019 0,0"
             style="fill:#f9e062;fill-opacity:1;fill-rule:nonzero;stroke:none"
             id="path58"
             inkscape:connector-curvature="0" /></g><g
           id="g60"
           transform="translate(23.5793,20.8345)"><path
             d="M 0,0 C 0.003,-0.008 0.007,-0.014 0.014,-0.019 0.098,-0.107 0.201,-0.397 0.19,-0.445 0.181,-0.609 0.078,-0.693 -0.066,-0.739 c -0.022,-0.007 -0.775,-0.22 -1.146,-0.235 -0.044,-0.002 -0.222,0.054 -0.411,0.17 -0.16,0.176 -0.511,0.263 -0.71,0.963 -0.003,0.017 -0.006,0.034 -0.009,0.052 0.141,0.181 0.575,0.231 0.907,0.253 0.15,0.01 0.275,0.006 0.409,-0.048 C -0.807,0.327 -0.578,0.261 -0.357,0.17 -0.234,0.119 -0.103,0.093 0,0"
             style="fill:#f9e062;fill-opacity:1;fill-rule:nonzero;stroke:none"
             id="path62"
             inkscape:connector-curvature="0" /></g><g
           id="g64"
           transform="translate(13.0539,21.021)"><path
             d="m 0,0 c -0.022,0.026 -0.314,0.453 -0.314,0.453 -0.044,0.113 -0.087,0.226 -0.131,0.339 -0.028,0.073 -0.011,0.144 0.057,0.167 0.09,0.032 0.174,0.09 0.278,0.084 C 0.237,1.026 0.591,1.123 0.934,0.989 0.94,0.986 1.391,0.836 1.405,0.836 1.429,0.81 1.997,0.661 2.129,0.537 2.314,0.363 2.056,-0.405 1.954,-0.501 1.667,-0.774 1.357,-0.818 0.995,-0.599 0.801,-0.481 0.025,-0.028 0.025,-0.028 0.018,-0.019 0.009,-0.009 0,0"
             style="fill:#f9e062;fill-opacity:1;fill-rule:nonzero;stroke:none"
             id="path66"
             inkscape:connector-curvature="0" /></g><g
           id="g68"
           transform="translate(15.4201,24.1509)"><path
             d="m 0,0 c 0.161,-0.209 0.229,-0.44 0.213,-0.709 -0.008,-0.143 -0.1,-0.228 -0.142,-0.342 -0.044,-0.118 -0.123,-0.174 -0.227,-0.227 -0.089,-0.046 -0.177,-0.051 -0.26,-0.029 -0.377,0.101 -0.713,0.276 -0.952,0.596 -0.086,0.114 -0.114,0.255 -0.124,0.398 -0.003,0.044 -0.056,0.775 0.188,0.793 0.206,0.015 0.414,0.004 0.621,0.004 0,0 0.658,-0.444 0.683,-0.484"
             style="fill:#f9e062;fill-opacity:1;fill-rule:nonzero;stroke:none"
             id="path70"
             inkscape:connector-curvature="0" /></g><g
           id="g72"
           transform="translate(23.3039,22.3882)"><path
             d="m 0,0 c -0.145,-0.056 -0.301,-0.062 -0.45,-0.1 -0.194,-0.05 -0.394,0.003 -0.588,0.031 -0.174,0.025 -0.394,0.149 -0.616,0.367 -0.015,0.018 -0.225,0.352 -0.269,0.522 -0.015,0.056 0.02,0.093 0.071,0.122 0.106,0.06 0.796,0.264 1.048,0.246 C -0.49,1.167 -0.18,1.135 0.127,1.057 0.393,0.99 0.48,0.769 0.589,0.564 0.62,0.505 0.599,0.494 0.521,0.425 0.427,0.318 0.335,0.271 0.246,0.19 0.17,0.12 0.082,0.063 0,0"
             style="fill:#f9e062;fill-opacity:1;fill-rule:nonzero;stroke:none"
             id="path74"
             inkscape:connector-curvature="0" /></g><g
           id="g76"
           transform="translate(17.6125,15.1172)"><path
             d="m 0,0 c -0.078,-0.115 -0.595,-0.337 -0.692,-0.318 -0.19,0.036 -0.326,0.242 -0.35,0.378 -0.022,0.124 0.003,0.252 0.013,0.378 0.04,0.5 0.245,0.926 0.542,1.317 0.013,0.018 0.295,0.353 0.369,0.443 0.041,0.05 0.096,0.059 0.153,0.041 C 0.212,2.186 0.383,1.912 0.477,1.691 0.486,1.667 0.491,1.729 0.51,1.617 0.561,1.309 0.565,0.986 0.435,0.683 0.405,0.616 0.369,0.56 0.323,0.505 0.255,0.424 0.029,0.043 0,0"
             style="fill:#f9e062;fill-opacity:1;fill-rule:nonzero;stroke:none"
             id="path78"
             inkscape:connector-curvature="0" /></g><g
           id="g80"
           transform="translate(15.4054,17.8223)"><path
             d="M 0,0 C 0.105,0.16 0.279,0.229 0.436,0.287 0.646,0.367 0.854,0.181 0.842,-0.048 0.822,-0.394 0.834,-0.744 0.729,-1.081 0.688,-1.21 0.614,-1.317 0.526,-1.416 0.447,-1.504 0.253,-1.679 -0.327,-1.614 c -0.141,0.082 -0.225,0.248 -0.193,0.416 0.001,0.018 0.002,0.037 0.003,0.054 0.048,0.264 0.115,0.521 0.228,0.765 C -0.283,-0.373 -0.052,-0.08 0,0"
             style="fill:#f9e062;fill-opacity:1;fill-rule:nonzero;stroke:none"
             id="path82"
             inkscape:connector-curvature="0" /></g><g
           id="g84"
           transform="translate(14.2121,18.5811)"><path
             d="M 0,0 C -0.122,0.052 -0.214,0.127 -0.295,0.228 -0.378,0.33 -0.472,0.422 -0.557,0.522 -0.654,0.637 -0.192,0.938 -0.051,1.029 0.324,1.272 0.72,1.316 1.131,1.132 1.188,1.106 1.23,1.048 1.279,1.006 1.286,0.989 1.293,0.972 1.3,0.956 1.324,0.829 1.365,0.708 1.329,0.572 1.273,0.38 1.156,0.172 1.096,0.057 1.077,0.02 0.944,-0.125 0.937,-0.129 0.679,-0.235 0.566,-0.22 0.432,-0.216 0.338,-0.214 0.112,-0.047 0,0"
             style="fill:#f9e062;fill-opacity:1;fill-rule:nonzero;stroke:none"
             id="path86"
             inkscape:connector-curvature="0" /></g></g></g></g></svg>